<?xml version="1.0" encoding="iso-8859-1"?>
<!-- Generator: Adobe Illustrator 19.0.0, SVG Export Plug-In . SVG Version: 6.00 Build 0)  -->
<svg xmlns="http://www.w3.org/2000/svg" xmlns:xlink="http://www.w3.org/1999/xlink" version="1.1" id="Layer_1" x="0px" y="0px" viewBox="0 0 496 496" style="enable-background:new 0 0 496 496;" xml:space="preserve" width="512px" height="512px">
<g>
	<g>
		<g>
			<path d="M496,80V64h-16V0H64v64H48v16h16v48H16v64H0v16h16v272H0v16h496v-16h-16V80H496z M320,16h64v16h-64V16z M320,48h64v16     h-64V48z M240,16h64v16h-64V16z M240,48h64v16h-64V48z M160,16h64v16h-64V16z M160,48h64v16h-64V48z M80,16h64v16H80V16z M80,48     h64v16H80V48z M32,144h48v16H32V144z M32,176h48v16H32V176z M216,288h-16v16h16v80h-16v16h16v80H32v-80h152v-16H32v-80h152v-16     H32v-80h184V288z M152,176v16H96v-16H152z M96,160v-16h56v16H96z M216,192h-48v-16h48V192z M216,160h-48v-16h48V160z M368,480     H232V333.248l136,71.576V480z M232,315.176v-45.92l32,16.84v45.92L232,315.176z M280,340.432v-45.92l40,21.056v45.92L280,340.432     z M368,386.752l-32-16.84v-45.92l32,16.84V386.752z M432,480h-48v-16h48V480z M432,448h-48v-16h48V448z M432,416h-48v-16h48V416z      M464,480h-16V336h-16v48h-48v-52.832l-152-80V208h16v-16h-16v-64H80V80h384V480z M464,64h-64V48h64V64z M464,32h-64V16h64V32z" fill="#D80027"/>
			<rect x="432" y="96" width="16" height="16" fill="#D80027"/>
			<rect x="400" y="96" width="16" height="16" fill="#D80027"/>
			<rect x="432" y="128" width="16" height="16" fill="#D80027"/>
			<rect x="184" y="224" width="16" height="16" fill="#D80027"/>
			<rect x="152" y="224" width="16" height="16" fill="#D80027"/>
			<rect x="184" y="256" width="16" height="16" fill="#D80027"/>
		</g>
	</g>
</g>
<g>
</g>
<g>
</g>
<g>
</g>
<g>
</g>
<g>
</g>
<g>
</g>
<g>
</g>
<g>
</g>
<g>
</g>
<g>
</g>
<g>
</g>
<g>
</g>
<g>
</g>
<g>
</g>
<g>
</g>
</svg>
