<?xml version="1.0" encoding="iso-8859-1"?>
<!-- Generator: Adobe Illustrator 19.0.0, SVG Export Plug-In . SVG Version: 6.00 Build 0)  -->
<svg xmlns="http://www.w3.org/2000/svg" xmlns:xlink="http://www.w3.org/1999/xlink" version="1.1" id="Layer_1" x="0px" y="0px" viewBox="0 0 499.28 499.28" style="enable-background:new 0 0 499.28 499.28;" xml:space="preserve" width="512px" height="512px">
<g>
	<g>
		<g>
			<path d="M299.28,97.992c-30.872,0-56,25.128-56,56s25.128,56,56,56s56-25.128,56-56S330.152,97.992,299.28,97.992z      M299.28,193.992c-22.056,0-40-17.944-40-40c0-22.056,17.944-40,40-40c22.056,0,40,17.944,40,40     C339.28,176.048,321.336,193.992,299.28,193.992z" fill="#D80027"/>
			<path d="M495.064,383.656l-15.448-30.888l6.4-3.2l-73.504-147l15.592-23.4l-17.96-53.864l-102.336-85.28L282.336,57     l-43.24-17.296l-7,15.752l-74.464-37.232L22.144,1.288L0,56.648L136.92,73.76l71.208,35.608l-5.96,13.4l16.272,24.408     l-15.888,47.688l36.672,64.176l14.112-3.024l57,113.976h108l1.792,3.576l15.152,30.312v30.112h-240v-104     c0-22.056-17.944-40-40-40h-152v16h152c13.232,0,24,10.768,24,24v104c0,8.824,7.176,16,16,16h240c8.824,0,16-7.176,16-16V403.88     c0-2.472-0.584-4.944-1.688-7.16l-11.576-23.16l27.288-13.648l15.448,30.88c1.656,3.336,2.528,7.048,2.528,10.752v56.448     c0,13.232-10.768,24-24,24h-288c-13.232,0-24-10.768-24-24v-104c0-8.824-7.176-16-16-16h-128v16h128v104     c0,22.056,17.944,40,40,40h288c22.056,0,40-17.944,40-40v-56.448C499.28,395.376,497.816,389.184,495.064,383.656z      M214.632,94.728l-73-36.504L22.552,43.336l9.856-24.64L152.92,33.76l72.664,36.336L214.632,94.728z M346.024,294.088     l-5.984,59.904h-19.816l-50.72-101.44l15.96-3.424l29.992,5c11.576,1.928,21.616,9.352,26.864,19.84     C345.44,280.192,346.72,287.144,346.024,294.088z M356.12,353.992l5.832-58.304c0.992-9.952-0.84-19.936-5.312-28.864     c-6.288-12.568-17.4-21.992-30.552-26.392l24.808-5.32l59.44,118.88H356.12z M430.864,359.264l-71.2-142.392l-112.336,24.072     L220,193.128l16.112-48.312l-15.728-23.592l27.08-60.936l36.76,14.704l22.528-15.024l89.664,74.72l14.04,42.136l-16.408,24.6     l70.504,141L430.864,359.264z" fill="#D80027"/>
			<rect x="403.28" y="457.992" width="16" height="16" fill="#D80027"/>
			<rect x="371.28" y="457.992" width="16" height="16" fill="#D80027"/>
			<rect x="283.28" y="457.992" width="72" height="16" fill="#D80027"/>
		</g>
	</g>
</g>
<g>
</g>
<g>
</g>
<g>
</g>
<g>
</g>
<g>
</g>
<g>
</g>
<g>
</g>
<g>
</g>
<g>
</g>
<g>
</g>
<g>
</g>
<g>
</g>
<g>
</g>
<g>
</g>
<g>
</g>
</svg>
