<?xml version="1.0" encoding="utf-8"?>
<!-- Svg Vector Icons : http://www.onlinewebfonts.com/icon -->
<!DOCTYPE svg PUBLIC "-//W3C//DTD SVG 1.1//EN" "http://www.w3.org/Graphics/SVG/1.1/DTD/svg11.dtd">
<svg version="1.1" xmlns="http://www.w3.org/2000/svg" xmlns:xlink="http://www.w3.org/1999/xlink" x="0px" y="0px" viewBox="0 0 1000 1000" enable-background="new 0 0 1000 1000" xml:space="preserve">
<metadata> Svg Vector Icons : http://www.onlinewebfonts.com/icon </metadata>
<g><path d="M10,158.8c7.6,49.6,129.6-15.2,137.2,34.3c47,176,84.5,361.5,137.2,531.7c212.2-22.2,513.6,44.8,668.9-34.3c0-17.2,0-34.3,0-51.5c-171.6-39.9-417.3-5.8-617.5-17.2c-40-188.7-85.7-371.6-137.2-548.9c-62.9,0-125.8,0-188.7,0C10,101.7,10,130.2,10,158.8L10,158.8z M335.9,244.6c57.2,0,114.4,0,171.5,0c0-34.3,0-68.6,0-102.9c-62.9,0-125.8,0-188.7,0C306.3,194.1,348.3,192.1,335.9,244.6z M558.9,244.6c62.9,0,125.8,0,188.7,0c0-34.3,0-68.6,0-102.9c-62.9,0-125.8,0-188.7,0C558.9,176,558.9,210.3,558.9,244.6z M799,244.6c57.2,0,114.4,0,171.5,0c-12.4-52.5,29.6-50.4,17.2-102.9c-62.9,0-125.8,0-188.7,0C799,176,799,210.3,799,244.6z M370.2,381.8c45.7,0,91.5,0,137.2,0c0-34.3,0-68.6,0-102.9c-51.5,0-102.9,0-154.4,0C352.7,319.3,382.6,329.4,370.2,381.8L370.2,381.8z M558.9,381.8c62.9,0,125.8,0,188.7,0c0-34.3,0-68.6,0-102.9c-62.9,0-125.8,0-188.7,0C558.9,313.2,558.9,347.5,558.9,381.8z M799,381.8c40,0,80,0,120.1,0c9.9-35.9,42.5-49,34.3-102.9c-51.5,0-102.9,0-154.4,0C799,313.2,799,347.5,799,381.8L799,381.8z M421.7,519c28.6,0,57.2,0,85.8,0c0-34.3,0-68.6,0-102.9c-35.5,10.2-112.7-21.2-120.1,17.2C423,437.7,392,508.6,421.7,519L421.7,519z M558.9,519c62.9,0,125.8,0,188.7,0c0-34.3,0-68.6,0-102.9c-62.9,0-125.8,0-188.7,0C558.9,450.4,558.9,484.7,558.9,519z M799,519c28.6,0,57.2,0,85.8,0c23.8-21.9,10.5-81,34.3-102.9c-40,0-80.1,0-120.1,0C799,450.4,799,484.7,799,519L799,519z M353,913.5c48.6,17.9,71.5,17.9,120.1,0C512.7,761,313.5,761,353,913.5z M730.4,913.5c48.6,17.9,71.5,17.9,120.1,0C890,761,690.8,761,730.4,913.5z"/><path d="M10,73.1c62.9,0,125.8,0,188.7,0c51.5,177.2,97.3,360.1,137.2,548.9c200.2,11.4,445.9-22.8,617.5,17.2c0,17.2,0,34.3,0,51.5c-155.3,79.1-456.7,12.1-668.9,34.3c-52.7-170.3-90.2-355.7-137.2-531.7c-7.6-49.6-129.6,15.2-137.2-34.3C10,130.2,10,101.7,10,73.1L10,73.1z"/><path d="M318.7,141.7c62.9,0,125.8,0,188.7,0c0,34.3,0,68.6,0,102.9c-57.2,0-114.4,0-171.5,0C348.3,192.1,306.3,194.1,318.7,141.7z"/><path d="M558.9,141.7c62.9,0,125.8,0,188.7,0c0,34.3,0,68.6,0,102.9c-62.9,0-125.8,0-188.7,0C558.9,210.3,558.9,176,558.9,141.7z"/><path d="M799,141.7c62.9,0,125.8,0,188.7,0c12.5,52.5-29.6,50.4-17.2,102.9c-57.2,0-114.4,0-171.5,0C799,210.3,799,176,799,141.7z"/><path d="M353,278.9c51.5,0,102.9,0,154.4,0c0,34.3,0,68.6,0,102.9c-45.7,0-91.5,0-137.2,0C382.6,329.4,352.7,319.3,353,278.9L353,278.9z"/><path d="M558.9,278.9c62.9,0,125.8,0,188.7,0c0,34.3,0,68.6,0,102.9c-62.9,0-125.8,0-188.7,0C558.9,347.5,558.9,313.2,558.9,278.9z"/><path d="M799,278.9c51.5,0,102.9,0,154.4,0c8.2,54-24.4,67-34.3,102.9c-40,0-80,0-120.1,0C799,347.5,799,313.2,799,278.9L799,278.9z"/><path d="M387.4,433.3c7.4-38.4,84.5-7,120.1-17.2c0,34.3,0,68.6,0,102.9c-28.6,0-57.2,0-85.8,0C392,508.6,423,437.7,387.4,433.3L387.4,433.3z"/><path d="M558.9,416.1c62.9,0,125.8,0,188.7,0c0,34.3,0,68.6,0,102.9c-62.9,0-125.8,0-188.7,0C558.9,484.7,558.9,450.4,558.9,416.1L558.9,416.1z"/><path d="M799,416.1c40,0,80,0,120.1,0c-23.8,21.9-10.5,81-34.3,102.9c-28.6,0-57.2,0-85.8,0C799,484.7,799,450.4,799,416.1L799,416.1z"/><path d="M473.1,913.5c-48.6,17.9-71.5,17.9-120.1,0C313.5,761,512.7,761,473.1,913.5z"/><path d="M850.5,913.5c-48.6,17.9-71.5,17.9-120.1,0C690.8,761,890,761,850.5,913.5z"/></g>
</svg>