<?xml version="1.0" encoding="iso-8859-1"?>
<!-- Generator: Adobe Illustrator 19.0.0, SVG Export Plug-In . SVG Version: 6.00 Build 0)  -->
<svg xmlns="http://www.w3.org/2000/svg" xmlns:xlink="http://www.w3.org/1999/xlink" version="1.1" id="Layer_1" x="0px" y="0px" viewBox="0 0 512 512" style="enable-background:new 0 0 512 512;" xml:space="preserve" width="512px" height="512px">
<g>
	<g>
		<path d="M511.366,250.047c-1.265-3.009-4.211-4.966-7.476-4.966h-24.064c-2.541-50.811-22.281-99.415-56.059-137.632    c-34.64-39.191-81.865-65.123-133.22-73.245L258.263,2.601c-2.334-2.284-5.81-2.948-8.817-1.681    c-3.009,1.266-4.966,4.213-4.966,7.476v23.283c-31.127,1.442-61,9.152-88.911,22.958c-4.014,1.986-5.658,6.851-3.672,10.865    c1.985,4.015,6.85,5.657,10.865,3.673c28.102-13.902,58.357-21.14,89.923-21.512c4.442-0.052,8.014-3.668,8.014-8.108V27.682    l64.13,62.777l-64.13,62.778v-9.725c0-2.182-0.879-4.272-2.439-5.798c-1.559-1.526-3.658-2.353-5.852-2.31    c-33.002,0.741-63.584,14.476-86.109,38.676c-3.051,3.278-2.868,8.41,0.411,11.462c1.562,1.454,3.544,2.173,5.523,2.173    c2.172,0,4.34-0.868,5.937-2.584c17.616-18.926,40.915-30.466,66.31-33.006v20.398c0,3.264,1.957,6.21,4.966,7.476    c3.011,1.266,6.484,0.602,8.817-1.681l23.768-23.268c42.173,11.063,72.941,46.935,77.701,90.03h-19.969    c-3.264,0-6.211,1.957-7.476,4.966c-1.265,3.009-0.603,6.483,1.68,8.816l23.219,23.72c-5.365,21.222-17.44,40.531-34.318,54.735    c-16.057,13.514-35.95,21.915-56.747,24.098V339.48c0-3.264-1.957-6.21-4.966-7.476c-3.008-1.264-6.484-0.602-8.817,1.681    l-25.084,24.554c-42.217-11.555-72.631-47.932-76.781-91.279h21.759c3.264,0,6.211-1.958,7.476-4.966    c1.265-3.009,0.603-6.483-1.68-8.816l-24.179-24.7c2.384-8.555,5.843-16.775,10.325-24.482c2.251-3.872,0.938-8.835-2.935-11.086    c-3.872-2.254-8.835-0.936-11.086,2.935c-3.63,6.242-6.682,12.773-9.132,19.528l-45.055-46.025    c-1.526-1.558-3.614-2.437-5.794-2.437s-4.27,0.879-5.794,2.437l-30.248,30.899c10.259-36.667,30.561-70.252,58.688-96.501    c4.638-4.328,9.529-8.494,14.542-12.384c3.572-2.771,7.276-5.457,11.009-7.983c3.71-2.51,4.682-7.552,2.171-11.261    c-2.511-3.71-7.553-4.682-11.261-2.172c-4.022,2.723-8.013,5.616-11.863,8.603c-5.4,4.19-10.67,8.677-15.665,13.34    c-36.86,34.4-61.237,80.499-68.861,130.057L2.315,253.177c-2.284,2.332-2.946,5.806-1.68,8.816    c1.265,3.008,4.21,4.966,7.476,4.966H30.51c2.404,51.146,22.211,100.046,56.248,138.473    c34.901,39.403,82.47,65.333,134.196,73.242l31.389,30.726c1.546,1.513,3.593,2.315,5.674,2.315c1.059,0,2.127-0.207,3.142-0.634    c3.009-1.266,4.966-4.213,4.966-7.476v-22.593c50.841-2.464,99.486-22.146,137.762-55.894    c39.246-34.603,65.238-81.811,73.413-133.173l32.387-33.085C511.969,256.53,512.631,253.056,511.366,250.047z M98.899,394.679    c-33.227-37.512-51.838-85.784-52.405-135.921c-0.05-4.442-3.667-8.018-8.109-8.018H27.396l62.777-64.131l62.777,64.131h-11.048    c-2.175,0-4.26,0.875-5.786,2.426c-1.525,1.553-2.362,3.653-2.323,5.828c0.911,51.028,33.275,95.291,80.328,112.103    l-45.613,44.651c-1.558,1.526-2.436,3.615-2.436,5.794c0,0.273,0.014,0.544,0.041,0.812c0.189,1.881,1.033,3.648,2.396,4.982    l30.797,30.148C160.755,446.776,125.782,425.03,98.899,394.679z M393.158,412.955c-37.371,32.95-85.404,51.449-135.249,52.088    c-4.438,0.056-8.006,3.671-8.006,8.108v11.169l-19.474-19.063l-0.001-0.001l-44.655-43.713l49.581-48.536    c0.001-0.001,0.002-0.003,0.003-0.004l14.545-14.238v11.295c0,2.186,0.882,4.277,2.446,5.804c1.564,1.526,3.672,2.32,5.863,2.303    c27.436-0.674,54.108-10.774,75.1-28.442c16.981-14.29,29.752-33.068,36.851-53.889l45.868,46.857    c1.526,1.558,3.614,2.437,5.794,2.437s4.27-0.879,5.794-2.437l28.247-28.851C444.956,351.912,423.254,386.419,393.158,412.955z     M421.827,325.43L359.05,261.3h9.379c2.195,0,4.296-0.889,5.823-2.465c1.528-1.575,2.351-3.703,2.283-5.897    c-1.584-50.761-34.316-94.484-81.3-110.811l46.86-45.872c1.363-1.335,2.207-3.101,2.396-4.982c0.027-0.269,0.041-0.54,0.041-0.812    c0-2.181-0.879-4.269-2.436-5.794l-29.694-29.068c38.093,10.861,72.638,32.525,99.215,62.594    c32.981,37.314,51.537,85.3,52.252,135.116c0.064,4.433,3.675,7.994,8.108,7.994h12.629L421.827,325.43z" fill="#FFFFFF"/>
	</g>
</g>
<g>
</g>
<g>
</g>
<g>
</g>
<g>
</g>
<g>
</g>
<g>
</g>
<g>
</g>
<g>
</g>
<g>
</g>
<g>
</g>
<g>
</g>
<g>
</g>
<g>
</g>
<g>
</g>
<g>
</g>
</svg>
