<?xml version="1.0" encoding="utf-8"?>
<!-- Svg Vector Icons : http://www.onlinewebfonts.com/icon -->
<!DOCTYPE svg PUBLIC "-//W3C//DTD SVG 1.1//EN" "http://www.w3.org/Graphics/SVG/1.1/DTD/svg11.dtd">
<svg version="1.1" xmlns="http://www.w3.org/2000/svg" xmlns:xlink="http://www.w3.org/1999/xlink" x="0px" y="0px" viewBox="0 0 1000 1000" enable-background="new 0 0 1000 1000" xml:space="preserve">
<metadata> Svg Vector Icons : http://www.onlinewebfonts.com/icon </metadata>
<g><g transform="translate(0.000000,511.000000) scale(0.100000,-0.100000)"><path d="M2053,4984.4c-157.8-70.1-208.2-181.9-208.2-462.3v-203.8l-238.8-8.8c-258.6-6.6-308.9-26.3-405.4-157.7l-46-59.2V-243.5v-4336.2l46-59.1c24.1-32.9,72.3-81.1,105.2-105.2c59.2-46,61.4-46,3343.6-46s3284.4,0,3343.6,46c131.5,96.4,151.2,146.8,157.8,403.2l8.8,236.6l236.6,8.8c256.4,6.6,306.7,26.3,403.2,157.8l46,59.1V457.6v4336.1l-46,59.2c-24.1,32.9-72.3,81.1-105.2,105.2c-59.2,46-65.7,46-3317.3,50.4C2695,5012.9,2107.8,5008.5,2053,4984.4z M8505.7,457.6v-4206.9h-175.3h-175.3v3334.8v3337l-694.6,694.6l-696.7,696.8H4480.7H2195.4v175.3v175.3h3155.1h3155.2V457.6z M6406.7,3374c6.6-556.5,8.8-593.8,52.6-650.8c24.1-32.9,72.3-81.1,105.2-105.2c57-43.8,94.2-46,650.7-52.6l589.4-6.6V-944.7v-3505.7H4649.4H1494.3v4206.9v4206.9h2454h2451.8L6406.7,3374z M7213,3360.8l449.2-449.2h-455.7h-453.6v449.2c0,247.6,2.2,449.2,6.6,449.2C6761.6,3810,6965.4,3608.4,7213,3360.8z"/><path d="M4353.6,3238.1c-644.2-127.1-1163.5-569.7-1356.3-1156.9c-216.9-659.5-61.4-1330,416.3-1807.6c341.8-341.8,740.6-506.1,1235.8-506.1c381.2,0,652.9,78.9,946.5,271.7c383.4,249.8,631,598.2,758.1,1064.9c50.4,179.7,50.4,631,0,810.7c-179.7,659.5-639.8,1128.4-1266.4,1290.5C4916.7,3251.3,4507,3268.8,4353.6,3238.1z M4649.4,2210.5v-701.1h701.1h701.2v-70.1c-2.2-146.8-67.9-385.6-157.8-565.3c-232.2-460.1-729.6-766.9-1244.5-766.9c-762.5,0-1402.3,639.8-1402.3,1402.3c0,519.3,308.9,1018.9,766.9,1246.7c186.2,92,398.8,151.2,554.3,153.4l81.1,2.2V2210.5z"/><path d="M2250.2-1350c-35.1-32.9-54.8-78.9-54.8-120.5c0-41.6,19.7-87.6,54.8-120.5l52.6-54.8h2346.6h2346.6l52.6,54.8c35,32.9,54.8,78.9,54.8,120.5c0,41.6-19.7,87.6-54.8,120.5l-52.6,54.8H4649.4H2302.8L2250.2-1350z"/><path d="M2250.2-2401.7c-35.1-32.9-54.8-78.9-54.8-120.5c0-41.7,19.7-87.7,54.8-120.5l52.6-54.8h2346.6h2346.6l52.6,54.8c35,32.9,54.8,78.9,54.8,120.5c0,41.6-19.7,87.6-54.8,120.5l-52.6,54.8H4649.4H2302.8L2250.2-2401.7z"/><path d="M2250.2-3453.4c-35.1-32.9-54.8-78.9-54.8-120.5c0-41.6,19.7-87.6,54.8-120.5l52.6-54.8h2346.6h2346.6l52.6,54.8c35,32.9,54.8,78.9,54.8,120.5c0,41.6-19.7,87.6-54.8,120.5l-52.6,54.8H4649.4H2302.8L2250.2-3453.4z"/></g></g>
</svg>