<?xml version="1.0" encoding="iso-8859-1"?>
<!DOCTYPE svg PUBLIC "-//W3C//DTD SVG 1.1//EN" "http://www.w3.org/Graphics/SVG/1.1/DTD/svg11.dtd">
<svg xmlns="http://www.w3.org/2000/svg" xmlns:xlink="http://www.w3.org/1999/xlink" version="1.1" viewBox="0 0 399.6 399.6" enable-background="new 0 0 399.6 399.6" width="512px" height="512px">
  <path d="m393.801,71.244c-1.424-1.605-3.466-2.523-5.611-2.523h-315.626l-3.749-31.158c-2.576-21.414-20.784-37.563-42.353-37.563h-15.052c-4.143,0-7.5,3.358-7.5,7.5s3.357,7.5 7.5,7.5h15.052c13.985,0 25.791,10.47 27.461,24.355l30.521,253.638c2.682,22.282 21.628,39.085 44.07,39.085h29.225l-3.193,6.047c-2.406-0.597-4.918-0.919-7.506-0.919-17.202,0-31.196,13.995-31.196,31.197s13.994,31.197 31.196,31.197 31.197-13.995 31.197-31.197c0-9.235-4.037-17.542-10.436-23.259l6.899-13.066h154.745l-3.193,6.047c-2.406-0.597-4.918-0.919-7.506-0.919-17.202,0-31.197,13.995-31.197,31.197s13.995,31.197 31.197,31.197 31.197-13.995 31.197-31.197c0-9.235-4.037-17.542-10.436-23.259l6.899-13.066h6.238c4.143,0 7.5-3.358 7.5-7.5s-3.357-7.5-7.5-7.5h-224.131c-14.858,0-27.402-11.125-29.178-25.877l-4.151-34.493h272.19c3.796,0 6.993-2.835 7.446-6.604l20.815-172.987c0.257-2.13-0.411-4.268-1.834-5.873zm-230.564,297.159c0,8.931-7.266,16.197-16.197,16.197-8.931,0-16.196-7.266-16.196-16.197s7.266-16.197 16.196-16.197c0.023,0 0.046,0.003 0.069,0.003l-6.701,12.691c-1.935,3.663-0.533,8.2 3.13,10.134 1.117,0.59 2.314,0.869 3.495,0.869 2.692,0 5.295-1.454 6.639-4l6.697-12.683c1.804,2.613 2.868,5.775 2.868,9.183zm171.707,0c0,8.931-7.266,16.197-16.197,16.197s-16.197-7.266-16.197-16.197 7.266-16.197 16.197-16.197c0.023,0 0.046,0.003 0.069,0.003l-6.701,12.691c-1.935,3.663-0.533,8.2 3.13,10.134 1.117,0.59 2.314,0.869 3.495,0.869 2.692,0 5.295-1.454 6.639-4l6.697-12.683c1.804,2.613 2.868,5.775 2.868,9.183zm-137.839-284.682h59.893l-4.443,157.987h-51.006l-4.444-157.987zm-10.562,157.987h-43.356l-12.302-157.987h51.214l4.444,157.987zm85.461-157.987h51.214l-12.302,157.987h-43.356l4.444-157.987zm-197.634,0h41.469l12.302,157.987h-34.761l-19.01-157.987zm286.353,157.987h-34.761l12.302-157.987h41.469l-19.01,157.987z" fill="#D80027"/>
</svg>
