<?xml version="1.0" encoding="iso-8859-1"?>
<!-- Generator: Adobe Illustrator 19.0.0, SVG Export Plug-In . SVG Version: 6.00 Build 0)  -->
<svg xmlns="http://www.w3.org/2000/svg" xmlns:xlink="http://www.w3.org/1999/xlink" version="1.1" id="Layer_1" x="0px" y="0px" viewBox="0 0 512 512" style="enable-background:new 0 0 512 512;" xml:space="preserve" width="512px" height="512px">
<g>
	<g>
		<path d="M372.87,135.248V33.391h16.696c9.217,0,16.696-7.473,16.696-16.696C406.261,7.473,398.782,0,389.565,0    c-57.744,0-213.995,0-267.13,0c-9.217,0-16.696,7.473-16.696,16.696c0,9.223,7.479,16.696,16.696,16.696h16.696v101.857    c-38.058,7.756-66.783,41.48-66.783,81.795v194.783h367.304V217.043C439.652,176.728,410.928,143.004,372.87,135.248z     M256,389.565c-39.891,0-72.348-32.456-72.348-72.348c0-14.358,4.206-28.245,12.163-40.152l46.305-69.299    c6.195-9.272,21.565-9.272,27.76,0l46.305,69.294c7.956,11.913,12.162,25.799,12.162,40.158    C328.348,357.109,295.891,389.565,256,389.565z M339.478,133.565h-66.783v-33.391h16.696c9.217,0,16.696-7.473,16.696-16.696    s-7.479-16.696-16.696-16.696h-66.783c-9.217,0-16.696,7.473-16.696,16.696s7.479,16.696,16.696,16.696h16.696v33.391h-66.783    V33.391h166.957V133.565z" fill="#D80027"/>
	</g>
</g>
<g>
	<g>
		<path d="M74.03,445.217C81.785,483.276,115.511,512,155.826,512h200.348c40.316,0,74.041-28.724,81.797-66.783H74.03z" fill="#D80027"/>
	</g>
</g>
<g>
</g>
<g>
</g>
<g>
</g>
<g>
</g>
<g>
</g>
<g>
</g>
<g>
</g>
<g>
</g>
<g>
</g>
<g>
</g>
<g>
</g>
<g>
</g>
<g>
</g>
<g>
</g>
<g>
</g>
</svg>
