<?xml version="1.0" encoding="utf-8"?>
<!-- Svg Vector Icons : http://www.onlinewebfonts.com/icon -->
<!DOCTYPE svg PUBLIC "-//W3C//DTD SVG 1.1//EN" "http://www.w3.org/Graphics/SVG/1.1/DTD/svg11.dtd">
<svg version="1.1" xmlns="http://www.w3.org/2000/svg" xmlns:xlink="http://www.w3.org/1999/xlink" x="0px" y="0px" viewBox="0 0 1000 1000" enable-background="new 0 0 1000 1000" xml:space="preserve">
<metadata> Svg Vector Icons : http://www.onlinewebfonts.com/icon </metadata>
<g><g transform="translate(0.000000,511.000000) scale(0.100000,-0.100000)"><path d="M3967.8,4688.1v-321.9h250.4h250.4v-405.4v-405.4h-727.3H3014v-610.4c0-567.5,2.4-608,42.9-596.1c183.6,52.5,450.7,62,1933.8,62c1468.8,0,1793.1-9.5,1964.8-62c38.2-11.9,40.5,26.2,40.5,596.1v610.4h-727.3h-727.2v405.4v405.4h250.4h250.4v321.9V5010H5005H3967.8V4688.1z M5188.6,3324.2c209.8-124,224.1-457.8,26.2-598.5c-217-152.6-522.2-28.6-567.5,231.3c-21.5,128.8,52.5,293.3,159.8,360C4907.3,3376.7,5090.9,3381.4,5188.6,3324.2z"/><path d="M3221.5,2086.7c-760.6-138.3-1359.1-689.1-1595.2-1468.8c-50.1-169.3-52.5-209.8-62-1504.6c-7.2-1151.7-2.4-1356.7,31-1537.9c147.8-791.6,729.6-1404.4,1530.8-1609.5c207.4-52.5,228.9-52.5,1878.9-52.5c1657.2,0,1671.5,0,1883.7,54.8c729.6,183.6,1292.4,736.8,1495,1471.2c52.5,186,54.8,217,54.8,1573.7c0,1256.6-4.8,1397.3-42.9,1538C8274,989.9,8107.1,1276,7801.9,1566.9c-250.4,240.8-512.7,386.3-877.5,493.6c-174.1,50.1-212.2,50.1-1847.9,57.2C3717.4,2120.1,3374.1,2115.3,3221.5,2086.7z M5400.8,420C5799,317.5,6187.7-2.1,6373.7-378.8c522.2-1065.8-283.8-2281.9-1464-2210.4c-386.3,21.5-710.6,169.3-989.5,445.9c-178.8,181.2-288.5,355.3-374.4,600.9c-54.8,152.6-64.4,212.2-64.4,472.1c0,264.7,7.1,319.5,64.4,486.4c112.1,317.1,252.8,519.8,505.5,722.5C4425.6,439.1,4923.9,541.6,5400.8,420z"/><path d="M4697.4-250c-655.7-851.2-670-1414-42.9-1709.6c224.1-107.3,426.8-107.3,653.3,0c398.2,188.3,574.6,522.2,469.7,896.5c-26.2,97.8-47.7,107.3-95.4,47.7c-35.8-40.5-233.7-174.1-262.3-174.1c-7.1,0-21.5,71.5-26.2,162.1c-7.1,90.6-38.1,224.2-71.5,307.6c-59.6,147.8-395.8,693.9-429.2,696.3C4883.4-21.1,4795.2-123.7,4697.4-250z"/><path d="M2584.8-4468.1V-4790l2415.4,4.8l2413,7.1l7.1,305.2c2.4,166.9,0,302.8-9.5,302.8c-9.5,0-93-28.6-186-62c-386.3-138.3-348.1-135.9-2076.8-145.5c-1130.2-7.2-1664.3-2.4-1824.1,16.7c-221.7,28.6-541.3,114.4-672.4,181.2l-66.8,35.8V-4468.1z"/></g></g>
</svg>