<?xml version="1.0" encoding="utf-8"?>
<!-- Svg Vector Icons : http://www.onlinewebfonts.com/icon -->
<!DOCTYPE svg PUBLIC "-//W3C//DTD SVG 1.1//EN" "http://www.w3.org/Graphics/SVG/1.1/DTD/svg11.dtd">
<svg version="1.1" xmlns="http://www.w3.org/2000/svg" xmlns:xlink="http://www.w3.org/1999/xlink" x="0px" y="0px" viewBox="0 0 1000 1000" enable-background="new 0 0 1000 1000" xml:space="preserve">
<metadata> Svg Vector Icons : http://www.onlinewebfonts.com/icon </metadata>
<g><g transform="translate(0.000000,511.000000) scale(0.100000,-0.100000)"><path d="M3941.5,4677v-333h249.8H4441v-416.3v-416.3h-737.4h-737.4v-620.8c0-578,2.4-618.4,42.8-606.6c168.9,52.3,492.4,61.8,2002.8,61.8c1336.8-2.4,1688.8-7.1,1843.4-35.7c104.7-19,192.7-35.7,197.4-35.7c2.4,0,4.7,80.9,4.7,178.4v178.4h178.4h178.4v-83.3v-83.3h202.2h202.2l-4.7,482.9l-7.1,480.5l-195,7.1l-195.1,7.1l-7.1-90.4l-7.1-90.4l-171.3-7.1l-173.7-7.1v133.2v130.8h-749.3H5559v416.3V4344h249.8h249.8v333v333H5000H3941.5V4677z"/><path d="M3358.7,2036.7c-877.7-83.3-1579.4-685-1824.4-1558l-54.7-190.3l-7.1-2538l-7.1-2540.4H5000h3534.6l-7.1,2538l-7.2,2540.4l-54.7,190.3c-214.1,765.9-773.1,1317.8-1531.8,1515.2c-192.7,49.9-242.7,49.9-1791.1,57.1C4267.4,2053.4,3463.4,2046.2,3358.7,2036.7z"/></g></g>
</svg>