<?xml version="1.0" encoding="utf-8"?>
<!-- Svg Vector Icons : http://www.onlinewebfonts.com/icon -->
<!DOCTYPE svg PUBLIC "-//W3C//DTD SVG 1.1//EN" "http://www.w3.org/Graphics/SVG/1.1/DTD/svg11.dtd">
<svg version="1.1" xmlns="http://www.w3.org/2000/svg" xmlns:xlink="http://www.w3.org/1999/xlink" x="0px" y="0px" viewBox="0 0 1000 1000" enable-background="new 0 0 1000 1000" xml:space="preserve">
<metadata> Svg Vector Icons : http://www.onlinewebfonts.com/icon </metadata>
<g><g transform="translate(0.000000,511.000000) scale(0.100000,-0.100000)"><path d="M1128.8,2757.4c-46.4-175.5-64.6-464-76.7-1228.5C1038,526.3,1076.4-179.7,1151-268.5c14.1-18.1,76.7-26.2,179.5-26.2h159.4v-232v-232h-58.5c-74.6,0-119-48.4-82.7-90.8c38.3-44.4,407.5-42.4,453.9,2c42.4,44.4,6,88.8-72.6,88.8h-58.5v232v232h3578.7c2888.7,0,3582.7,4,3598.8,26.2c72.6,86.7,113,823.1,98.8,1799.4c-12.1,756.5-30.3,1057.1-74.6,1222.5l-22.2,78.7H5000H1149L1128.8,2757.4z M4023.6,1722.6c38.3-16.1,60.5-16.1,76.7,0c54.5,54.5,72.6,20.2,72.6-151.3c0-203.8-28.2-225.9-96.8-72.6c-60.5,129.1-110.9,173.5-205.8,173.5c-153.3,0-230-125.1-232-373.2c0-340.9,147.3-518.4,320.7-381.3c46.4,36.3,54.5,54.5,48.4,135.2c-6,86.7-10.1,92.8-72.6,108.9c-38.3,10.1-64.6,28.2-58.5,42.4c10.1,32.3,441.8,34.3,451.9,2c4-14.1-20.2-34.3-54.5-44.4l-60.5-22.2V968.1c0-181.6-14.1-203.7-82.7-141.2c-32.3,28.2-42.4,28.2-127.1,0c-242.1-82.7-466-2-558.8,199.7c-42.4,90.8-50.4,296.5-18.2,413.5c26.2,98.8,133.1,219.9,230,264.3C3749.3,1746.8,3936.9,1754.8,4023.6,1722.6z M2014.4,1694.3c0-18.2-24.2-32.3-54.5-36.3l-56.5-6v-373.2V905.6l117-6c137.2-8.1,159.4,6,228,141.2c26.2,52.4,58.5,96.8,68.6,96.8c22.2,0,28.2-238,8.1-290.5c-10.1-28.2-64.5-32.3-393.4-32.3c-310.7,0-381.3,6-381.3,28.2c0,14.1,28.2,32.3,60.5,40.3l60.5,12.1v373.2v375.2l-60.5,12.1c-32.3,6-60.5,24.2-60.5,38.3c0,22.2,48.4,28.2,232,28.2C1970,1722.6,2014.4,1716.5,2014.4,1694.3z M3123.9,1692.3c70.6-36.3,121-125.1,121-207.8c0-139.2-183.6-286.5-357.1-286.5h-86.7v-143.2c0-139.2,2-143.2,60.5-165.4c34.3-12.1,60.5-34.3,60.5-48.4c0-20.2-56.5-26.2-232-26.2c-183.6,0-232,6-232,28.2c0,14.1,28.2,32.3,60.5,40.3l60.5,12.1v373.2v375.2l-60.5,12.1c-32.3,6-60.5,24.2-60.5,38.3C2458.2,1736.7,3041.2,1734.7,3123.9,1692.3z"/><path d="M2801.1,1470.4v-191.6h52.5c28.2,0,68.6,10.1,88.8,20.2c54.5,30.3,84.7,155.3,58.5,248.1c-22.2,80.7-66.6,115-147.3,115h-52.5V1470.4z"/><path d="M892.8,2751.4c-106.9-40.3-238-276.4-310.7-554.8C447,1674.2,447,881.4,582.1,350.8C636.6,132.9,745.5-93,826.2-161.6c78.7-66.6,123.1-68.6,108.9-6.1c-84.7,365.1-92.8,2303.8-10.1,2808.1c10.1,64.6,18.2,121,14.1,123.1C937.2,2765.5,917,2759.5,892.8,2751.4z"/><path d="M9062.8,2725.2c86.7-363.1,86.7-2679-2-2910.9c-6-16.2,2-28.2,20.2-28.2c60.5,0,157.4,106.9,224,248.1c133.1,278.4,193.7,603.2,207.8,1123.6c18.2,704-98.9,1270.9-314.7,1517C9121.3,2763.5,9044.7,2791.7,9062.8,2725.2z"/><path d="M2520.7-470.2c-30.3-26.2-102.9-238-274.4-796.8c-127.1-417.6-232-764.5-232-770.6c0-6.1,66.6-12.1,147.3-12.1h147.3l201.7,661.7l201.7,659.6l256.2,6.1c230,4,258.2,2,272.3-30.3c6.1-20.2,100.9-316.7,205.8-661.7l191.6-625.4l147.3-6.1c108.9-4,145.2,0,145.2,20.2c0,14.1-104.9,361.1-230,772.6c-175.5,566.9-242.1,754.5-274.4,780.7c-40.3,32.3-92.8,36.3-453.9,36.3C2613.5-435.9,2559.1-440,2520.7-470.2z"/><path d="M6567.4-480.3c-38.3-36.3-98.9-207.8-274.4-786.7c-123-405.5-223.9-748.4-223.9-762.5c0-14.1,46.4-20.2,145.2-16.1l147.3,6.1l191.6,625.4c104.9,345,199.7,641.5,205.8,661.7c14.1,32.3,42.4,34.3,272.3,30.3l256.2-6.1l201.7-659.6l199.7-661.7h149.3c80.7,0,147.3,6,147.3,12.1c0,6.1-104.9,353-232,770.6c-169.5,556.8-244.1,770.6-274.3,796.8c-38.3,30.3-92.8,34.3-453.9,34.3C6627.9-435.9,6613.8-437.9,6567.4-480.3z"/><path d="M1358.8-1008.8c-32.3-24.2-34.3-32.3-12.1-60.5c14.1-18.1,52.5-32.3,84.7-32.3h58.5v-191.6v-191.7H975.5H461.1v-80.7v-80.7h585c556.8,0,585,2,605.2,38.3c10.1,22.2,20.2,145.2,20.2,272.3v234h58.5c78.7,0,115,44.4,72.6,88.8C1758.2-970.5,1415.3-966.5,1358.8-1008.8z"/><path d="M182.7-2427L100-2604.5l2451-6c1347.5-2,3550.4-2,4898,0l2451,6l-82.7,177.5l-82.7,175.5H5000H265.4L182.7-2427z"/></g></g>
</svg>