<?xml version="1.0" encoding="utf-8"?>
<!-- Svg Vector Icons : http://www.onlinewebfonts.com/icon -->
<!DOCTYPE svg PUBLIC "-//W3C//DTD SVG 1.1//EN" "http://www.w3.org/Graphics/SVG/1.1/DTD/svg11.dtd">
<svg version="1.1" xmlns="http://www.w3.org/2000/svg" xmlns:xlink="http://www.w3.org/1999/xlink" x="0px" y="0px" viewBox="0 0 1000 1000" enable-background="new 0 0 1000 1000" xml:space="preserve">
<metadata> Svg Vector Icons : http://www.onlinewebfonts.com/icon </metadata>
<g><path d="M844.1,351.4H549.5v274h294.6V351.4z M804.9,579.1H595.6c-4.8,0-7.5-5.6-7.5-12.7c0-7.3,2.7-13.1,7.5-13.1h209.3c4.4,0,7.7,5.8,7.7,13.1C812.7,573.5,809.4,579.1,804.9,579.1z M804.9,526.6H595.6c-4.8,0-7.5-6.2-7.5-13.1c0-6.9,2.7-12.7,7.5-12.7h209.3c4.4,0,7.7,5.8,7.7,12.7C812.7,520.5,809.4,526.6,804.9,526.6z M804.9,474.1H595.6c-4.8,0-7.5-6-7.5-12.7c0-7.3,2.7-12.9,7.5-12.9h209.3c4.4,0,7.7,5.6,7.7,12.9C812.7,468.2,809.4,474.1,804.9,474.1z M804.9,421.3H595.6c-4.8,0-7.5-5.8-7.5-12.7c0-7,2.7-12.5,7.5-12.5h209.3c4.4,0,7.7,5.6,7.7,12.5C812.7,415.5,809.4,421.3,804.9,421.3z"/><path d="M16,769.7v6V816h27l18.5-30.9h872.1L951,816h28v-40.3v-6v-15.8H16V769.7z"/><path d="M271.1,356.8c-39.6-20.3-100.1-5.4-112.1,0c-9.8,4.1-19.5,8.9-19.5,18.9v62.9c0,5.4,1,13.7,6.2,14.3C185.2,454.5,306,374.8,271.1,356.8z"/><path d="M216.6,535.1l-30.9,54l30.9,53.3h61.9l31.1-53.3l-31.1-54H216.6z M287.9,595.3c-3.7,22.2-24.3,37.4-46.3,34c-22.6-3.3-37.6-23.9-34-46.3c3.7-22.6,23.9-37.4,46.7-34C276.3,552.5,291.5,573.5,287.9,595.3z"/><path d="M247.5,562.9c-14.3,0-26.1,11.6-26.1,26.2c0,14.5,11.8,26.3,26.1,26.3c14.7,0,26.2-11.8,26.2-26.3C273.8,574.5,262.2,562.9,247.5,562.9z"/><path d="M957,206.7h-80.8V184H517.5v22.8H382.4V187H110.5v19.7H42.6c-17.3,0-32.6,15.1-32.6,33.2v464.6c0,17.8,15.3,32.4,32.6,32.4H957c17.9,0,33-14.7,33-32.4V239.9C990,221.8,974.9,206.7,957,206.7z M382.4,633.1c0,24.7-24.7,44-55.2,44H165.5c-30.1,0-55-19.3-55-44V358.4c0-24.3,24.9-43.4,55-43.4h161.7c30.5,0,55.2,19.1,55.2,43.4V633.1z M876.2,655.1H517.5V321.7h358.7V655.1z"/></g>
</svg>