<?xml version="1.0" encoding="iso-8859-1"?>
<!-- Generator: Adobe Illustrator 19.1.0, SVG Export Plug-In . SVG Version: 6.00 Build 0)  -->
<svg xmlns="http://www.w3.org/2000/svg" xmlns:xlink="http://www.w3.org/1999/xlink" version="1.1" id="Capa_1" x="0px" y="0px" viewBox="0 0 489.5 489.5" style="enable-background:new 0 0 489.5 489.5;" xml:space="preserve" width="512px" height="512px">
<g>
	<g>
		<g>
			<path d="M312.3,309.7h-9.5c-1.5-7.8-4.6-15.4-9.2-22.2l6.7-6.8c2.4-2.4,2.4-6.4,0-8.8l-6.8-6.8c-2.4-2.4-6.4-2.4-8.8,0l-6.7,6.8     c-6.8-4.6-14.4-7.7-22.2-9.2v-9.5c0-3.4-2.8-6.2-6.2-6.2H240c-3.4,0-6.2,2.8-6.2,6.2v9.5c-7.8,1.5-15.4,4.5-22.3,9.2l-6.6-6.6     c-2.4-2.4-6.4-2.4-8.8,0l-6.8,6.8c-2.4,2.4-2.4,6.4,0,8.8l6.6,6.6c-4.7,6.9-7.8,14.5-9.3,22.3h-9.2c-3.4,0-6.2,2.8-6.2,6.2v9.6     c0,3.4,2.8,6.2,6.2,6.2h9.2c1.5,7.9,4.6,15.6,9.3,22.4l-6.5,6.5c-2.4,2.4-2.4,6.4,0,8.8l6.8,6.8c2.4,2.4,6.4,2.4,8.8,0l6.5-6.5     c6.9,4.7,14.6,7.8,22.5,9.2v9.2c0,3.4,2.8,6.2,6.2,6.2h9.6c3.4,0,6.2-2.8,6.2-6.2V379c7.9-1.5,15.5-4.6,22.3-9.3l6.6,6.6     c2.4,2.4,6.4,2.4,8.8,0l6.8-6.8c2.4-2.4,2.4-6.4,0-8.8l-6.6-6.6c4.6-6.8,7.7-14.5,9.1-22.3h9.5c3.4,0,6.2-2.8,6.2-6.2V316     C318.5,312.5,315.7,309.7,312.3,309.7z M267.4,343.6c-12.5,12.6-32.9,12.6-45.5,0c-12.6-12.5-12.6-32.9,0-45.5     c12.5-12.6,32.9-12.6,45.5,0C280,310.6,280,331,267.4,343.6z" fill="#FFFFFF"/>
		</g>
		<g>
			<path d="M483.4,438.5c-21.5-17.7-44.6-29.4-49.4-31.7c-0.5-0.3-0.9-0.8-0.9-1.4V372c4.2-2.8,7-7.6,7-13v-34.7     c0-17.3-14-31.2-31.2-31.2h-3.7h-3.7c-17.3,0-31.2,14-31.2,31.2V359c0,5.4,2.8,10.2,7,13v33.4c0,0.6-0.3,1.1-0.9,1.4     c-4.7,2.3-27.9,14-49.4,31.7c-3.9,3.2-6.1,8-6.1,13v23.8h73.3l7.2-33.1c-14.7-20.5,1-21.5,3.8-21.5l0,0l0,0     c2.7,0,18.5,1,3.8,21.4l7.2,33.1h73.3v-23.8C489.5,446.4,487.3,441.7,483.4,438.5z" fill="#FFFFFF"/>
		</g>
		<g>
			<path d="M162.5,438.5c-21.5-17.7-44.6-29.4-49.4-31.7c-0.5-0.3-0.9-0.8-0.9-1.4V372c4.2-2.8,7-7.6,7-13v-34.7     c0-17.3-14-31.2-31.2-31.2h-3.7h-3.7c-17.3,0-31.2,14-31.2,31.2V359c0,5.4,2.8,10.2,7,13v33.4c0,0.6-0.3,1.1-0.9,1.4     c-4.7,2.3-27.9,14-49.4,31.7c-3.9,3.2-6.1,8-6.1,13v23.8h73.3l7.2-33.1c-14.7-20.5,1-21.5,3.7-21.5l0,0l0,0     c2.7,0,18.5,1,3.8,21.4l7.2,33.1h73.3v-23.8C168.6,446.4,166.3,441.7,162.5,438.5z" fill="#FFFFFF"/>
		</g>
		<g>
			<path d="M240.9,163.2c-14.6-20.4,1.1-21.4,3.8-21.4l0,0l0,0c2.7,0,18.5,1,3.8,21.4l7.2,33.1H329v-23.8c0-5-2.2-9.8-6.1-13     c-21.5-17.7-44.6-29.4-49.4-31.7c-0.5-0.3-0.9-0.8-0.9-1.4V93c4.2-2.8,7-7.6,7-13V45.4c0-17.3-14-31.2-31.2-31.2h-3.7H241     c-17.3,0-31.2,14-31.2,31.2v34.7c0,5.4,2.8,10.2,7,13v33.4c0,0.6-0.3,1.1-0.9,1.4c-4.7,2.3-27.9,14-49.4,31.7     c-3.9,3.2-6.1,8-6.1,13v23.8h73.3L240.9,163.2z" fill="#FFFFFF"/>
		</g>
	</g>
</g>
<g>
</g>
<g>
</g>
<g>
</g>
<g>
</g>
<g>
</g>
<g>
</g>
<g>
</g>
<g>
</g>
<g>
</g>
<g>
</g>
<g>
</g>
<g>
</g>
<g>
</g>
<g>
</g>
<g>
</g>
</svg>
