<?xml version="1.0" encoding="iso-8859-1"?>
<!-- Generator: Adobe Illustrator 19.0.0, SVG Export Plug-In . SVG Version: 6.00 Build 0)  -->
<svg xmlns="http://www.w3.org/2000/svg" xmlns:xlink="http://www.w3.org/1999/xlink" version="1.1" id="Layer_1" x="0px" y="0px" viewBox="0 0 496 496" style="enable-background:new 0 0 496 496;" xml:space="preserve" width="512px" height="512px">
<g>
	<g>
		<g>
			<rect x="480" y="480" width="16" height="16" fill="#D80027"/>
			<path d="M136,264h224V128H136V264z M152,144h192v104H152V144z" fill="#D80027"/>
			<path d="M168,208h72v-48h-72V208z M184,176h40v16h-40V176z" fill="#D80027"/>
			<path d="M256,208h72v-48h-72V208z M272,176h40v16h-40V176z" fill="#D80027"/>
			<rect x="344" y="448" width="16" height="16" fill="#D80027"/>
			<rect x="312" y="448" width="16" height="16" fill="#D80027"/>
			<rect x="280" y="448" width="16" height="16" fill="#D80027"/>
			<rect x="280" y="416" width="80" height="16" fill="#D80027"/>
			<path d="M480.392,280.296l9.496-3.168l-27.304-91.008l-59.44-25.472l-6.296,14.704l52.56,22.528l1.056,3.528l-25.168,8.392     l-9.504,38l3.024,15.112c1.8,8.992,7.376,16.792,15.304,21.4c4.936,2.856,10.488,4.32,16.072,4.32     c3.408,0,6.824-0.536,10.12-1.64l4.888-1.632l14.8,51.76V424c0,8.824-7.176,16-16,16c-8.824,0-16-7.176-16-16v-64     c0-17.648-14.352-32-32-32h-24V48h24V0H80v48h24v432H0v16h464v-16h-72V344h24c8.824,0,16,7.176,16,16v64     c0,17.648,14.352,32,32,32s32-14.352,32-32v-88L480.392,280.296z M455.256,271.816c-4.408,1.488-9.056,1-13.088-1.336     c-4.024-2.336-6.744-6.144-7.656-10.704l-2.32-11.576l6.504-26l16.376-5.456l15.04,50.128L455.256,271.816z M376,480H120V296h256     V480z M376,280H120V48h16v64h224V48h16V280z M152,96V48h192v48H152z M96,32V16h304v16H96z" fill="#D80027"/>
		</g>
	</g>
</g>
<g>
</g>
<g>
</g>
<g>
</g>
<g>
</g>
<g>
</g>
<g>
</g>
<g>
</g>
<g>
</g>
<g>
</g>
<g>
</g>
<g>
</g>
<g>
</g>
<g>
</g>
<g>
</g>
<g>
</g>
</svg>
