<?xml version="1.0" encoding="utf-8"?>
<!-- Svg Vector Icons : http://www.onlinewebfonts.com/icon -->
<!DOCTYPE svg PUBLIC "-//W3C//DTD SVG 1.1//EN" "http://www.w3.org/Graphics/SVG/1.1/DTD/svg11.dtd">
<svg version="1.1" xmlns="http://www.w3.org/2000/svg" xmlns:xlink="http://www.w3.org/1999/xlink" x="0px" y="0px" viewBox="0 0 1000 1000" enable-background="new 0 0 1000 1000" xml:space="preserve">
<metadata> Svg Vector Icons : http://www.onlinewebfonts.com/icon </metadata>
<g><g transform="translate(0.000000,511.000000) scale(0.100000,-0.100000)"><path d="M554.8,5021.8c-188.8-59.4-303.4-157-394.7-331l-50.9-95.5l-6.4-3986.9c-6.4-4407-14.9-4114.2,129.4-4303c44.6-57.3,118.8-116.7,203.7-159.1l133.7-70h1366.4h1366.4l95.5,191c53,104,95.5,195.2,95.5,201.6c0,6.4-672.6,10.6-1495.9,10.6H501.8V563.9v4084.5H5000h4498.2V563.9v-4084.5H7864.4H6230.6l-95.5-191c-53-104-95.5-195.2-95.5-201.6s763.9-10.6,1695.3-10.6h1695.3l133.7,70c84.9,42.4,159.1,101.8,203.7,159.1c144.3,188.8,135.8-104,129.4,4303l-6.4,3986.9l-57.3,106.1c-72.1,135.8-169.7,229.2-303.4,290.7l-106.1,48.8l-4392.2,4.2C1530.8,5047.3,622.7,5043,554.8,5021.8z"/><path d="M2430.5,2993.4c-199.5-34-375.6-159.1-477.4-343.7c-55.2-101.8-61.5-131.5-61.5-314c0-235.5,40.3-343.7,182.5-485.9c140-140,252.5-182.5,475.3-182.5s335.2,42.4,475.3,182.5c142.2,142.2,182.5,250.4,182.5,485.9c0,182.5-6.4,212.2-61.5,314C3003.4,2904.2,2721.2,3040,2430.5,2993.4z"/><path d="M7601.3,2840.6C7510.1,2745.1,4108.8-3998,4108.8-4085c2.1-80.6,95.5-727.8,108.2-740.5c6.4-4.2,154.9,95.5,331,224.9l318.3,235.5L6589.2-955.3C7968.4,1777.6,8310,2471.4,8310,2537.2c0,137.9-63.7,207.9-263.1,294.9C7809.3,2934,7696.8,2936.1,7601.3,2840.6z"/><path d="M1880.9,489.6v-191h1485.3h1485.3v191v191H3366.2H1880.9V489.6z"/><path d="M1880.9-603.1v-201.6h1145.8h1145.8v201.6v201.6H3026.7H1880.9V-603.1z"/><path d="M1880.9-1685.2v-201.6h806.3h806.3v201.6v201.6h-806.3h-806.3V-1685.2z"/></g></g>
</svg>