<?xml version="1.0" encoding="utf-8"?>
<!-- Svg Vector Icons : http://www.onlinewebfonts.com/icon -->
<!DOCTYPE svg PUBLIC "-//W3C//DTD SVG 1.1//EN" "http://www.w3.org/Graphics/SVG/1.1/DTD/svg11.dtd">
<svg version="1.1" xmlns="http://www.w3.org/2000/svg" xmlns:xlink="http://www.w3.org/1999/xlink" x="0px" y="0px" viewBox="0 0 1000 1000" enable-background="new 0 0 1000 1000" xml:space="preserve">
<metadata> Svg Vector Icons : http://www.onlinewebfonts.com/icon </metadata>
<g><g transform="translate(0.000000,511.000000) scale(0.100000,-0.100000)"><path d="M1241.4,4995.8c-23.6-9.8-51.2-35.5-63.1-57.1c-15.8-27.6-21.7-1480.2-21.7-4836.7c0-4694.8,0-4799.3,37.4-4844.6l37.4-47.3H5000h3768.5l37.4,47.3c37.5,45.3,37.5,149.8,37.5,4850.5s0,4805.2-37.5,4850.5l-37.4,47.3l-3742.9,3.9C2895,5011.6,1267,5005.7,1241.4,4995.8z M8528,107.8v-4592.3H5000H1472V107.8v4592.3h3528h3528V107.8z"/><path d="M2092.8,3803.4c-31.5-29.6-49.3-71-49.3-108.4c0-37.5,17.7-78.8,49.3-108.4l47.3-49.3H5000h2859.9l47.3,49.3c31.5,29.6,49.3,71,49.3,108.4c0,37.4-17.8,78.8-49.3,108.4l-47.3,49.3H5000H2140.1L2092.8,3803.4z"/><path d="M2092.8,2778.5c-78.8-76.9-63.1-189.2,31.5-236.5c47.3-25.6,439.5-29.6,2873.7-29.6c2024.2,0,2832.3,5.9,2865.8,21.7c96.6,43.4,120.2,169.5,43.4,244.4l-47.3,49.3H5000H2140.1L2092.8,2778.5z"/><path d="M4339.7,1909.3c-449.4-41.4-853.4-181.3-1222-423.8c-199.1-130.1-563.7-492.7-693.8-687.9C2146,383.8,1984.4-105,1984.4-522.9c0-122.2,7.9-163.6,37.4-199.1l37.4-47.3l1220-5.9c670.1-2,1237.8,0,1261.4,5.9c23.6,5.9,63.1,29.6,84.8,53.2c39.4,41.4,39.4,65,39.4,1279.1v1237.8l-45.3,51.2C4574.3,1907.3,4493.5,1923.1,4339.7,1909.3z M4349.6,561.2V-463.7H3322.7H2295.8l13.8,124.2C2347.1-4.5,2494.9,377.9,2694,667.6c187.2,270,502.6,542,808.1,695.8c224.7,114.3,583.4,216.8,774.6,220.7l72.9,2V561.2z"/><path d="M5256.2,1136.7l-49.3-39.4L5197.1-103l-9.9-1198.3l-1196.4-5.9l-1196.4-3.9l-41.4-55.2c-41.4-49.3-43.4-67-31.5-240.4c35.5-514.4,214.8-1001.3,520.3-1415.2c134-179.4,453.3-486.8,634.6-609c1091.9-735.2,2501.2-573.5,3396,390.2c346.9,370.6,569.6,812,668.2,1308.7c51.2,270,51.2,678,0,948C7708.1,192.6,6687.1,1101.2,5522.3,1166.3C5323.2,1176.1,5301.6,1174.1,5256.2,1136.7z M5741.1,827.2c228.6-41.4,354.8-78.8,559.8-165.6c689.8-295.6,1198.3-944.1,1332.4-1697c35.5-201,39.4-603.1,7.9-808.1c-151.8-969.7-922.4-1744.3-1892.1-1902c-1210.2-195.1-2345.4,528.2-2641.1,1683.2c-19.7,82.8-45.3,214.8-55.2,291.7l-15.8,143.9l1190.5,3.9l1190.5,5.9l47.3,55.2l47.3,55.2v1182.6c0,985.5,3.9,1180.6,27.6,1180.6C5553.8,856.8,5644.5,843,5741.1,827.2z"/></g></g>
</svg>