<?xml version="1.0" encoding="utf-8"?>
<!-- Svg Vector Icons : http://www.onlinewebfonts.com/icon -->
<!DOCTYPE svg PUBLIC "-//W3C//DTD SVG 1.1//EN" "http://www.w3.org/Graphics/SVG/1.1/DTD/svg11.dtd">
<svg version="1.1" xmlns="http://www.w3.org/2000/svg" xmlns:xlink="http://www.w3.org/1999/xlink" x="0px" y="0px" viewBox="0 0 1000 1000" enable-background="new 0 0 1000 1000" xml:space="preserve">
<metadata> Svg Vector Icons : http://www.onlinewebfonts.com/icon </metadata>
<g><g transform="translate(0.000000,511.000000) scale(0.100000,-0.100000)"><path d="M908.2,4984.6c-98.8-31.6-282.6-221.4-312.3-322.2c-33.6-118.6-33.6-4719.6,0-4838.1C627.5-284.4,811.3-468.2,920-499.9c57.3-15.8,282.6-23.7,737.2-23.7h654.2v-1423v-1423H1283.7H256v-193.7c0-262.9,27.7-399.2,120.6-590.9c150.2-314.2,476.3-561.3,808.3-618.6c88.9-15.8,838-19.8,2470.5-15.8l2342,5.9l130.4,51.4c191.7,73.1,304.4,146.3,432.8,274.7c128.5,128.5,201.6,241.1,274.7,432.8l51.4,130.4l5.9,1685.8l5.9,1683.9h1207.6c887.4,0,1229.3,5.9,1288.6,23.7c108.7,31.6,292.5,215.4,324.1,324.1c33.6,118.6,33.6,4719.6,0,4838.1c-31.6,108.7-215.4,292.5-324.1,324.1C9284,5018.1,1012.9,5018.1,908.2,4984.6z M1837.1,2243.3V-207.4h-434.8c-409.1,0-436.8,2-474.3,39.5c-39.5,39.5-39.5,65.2-39.5,2411.2c0,2346,0,2371.6,39.5,2411.2c37.5,37.5,65.2,39.5,474.3,39.5h434.8V2243.3z M7845.2,2243.3V-207.4h-474.3h-474.3l3.9,1023.7l5.9,1021.8l391.3,5.9l389.3,4v790.5v790.5H5157.4H2627.6V2939v-488.2l-55.3-69.2c-79.1-96.8-154.2-231.2-205.5-367.6c-43.5-114.6-45.5-136.4-51.4-1168l-5.9-1053.4h-77.1h-79.1v2450.7V4694h2846h2846V2243.3z M9386.8,4654.5c39.5-39.5,39.5-65.2,37.5-1229.3c-2-656.1-7.9-1164.1-15.8-1130.5c-23.7,96.8-122.5,262.9-193.7,326.1c-100.8,87-254.9,158.1-371.6,170c-266.8,27.7-551.4-170-648.2-448.6c-29.6-83-31.6-4-33.6,1132.5V4694h592.9C9321.6,4694,9349.2,4692,9386.8,4654.5z M7370.9,2954.8v-156.1l-2079.1-5.9l-2081.1-5.9l-132.4-51.4l-134.4-53.4v215.4v215.4h2213.5h2213.5V2954.8z M6831.3,2367.8c-94.8-122.5-146.3-215.4-203.6-371.6c-35.6-94.9-37.6-229.3-47.5-2994.2c-9.9-2842-9.9-2897.3-49.4-2988.3c-90.9-209.5-237.2-355.8-440.7-438.8c-134.4-53.3-504-67.2-675.9-23.7c-249,63.2-458.5,260.9-533.6,504c-29.6,92.9-39.5,179.8-39.5,349.8v225.3H3734.4H2627.6v2585.1c0,1632.5,7.9,2614.7,19.8,2668.1c65.2,280.7,270.8,492.1,553.4,569.2c67.2,19.8,525.7,25.7,1903.2,25.7l1814.3,2L6831.3,2367.8z M8987.6,2429.1c87-65.2,126.5-160.1,116.6-290.5c-11.9-197.6-130.5-298.4-336-284.6c-197.6,11.9-298.4,130.4-284.6,336c7.9,130.4,51.4,203.6,154.2,256.9C8726.7,2494.3,8910.5,2484.4,8987.6,2429.1z M7370.9,2292.7v-128.5h-158.1c-87,0-158.1,7.9-158.1,15.8c0,35.6,256.9,241.1,300.4,241.1C7365,2421.2,7370.9,2363.9,7370.9,2292.7z M9426.3,978.4c0-1081.1,0-1106.8-39.5-1146.3c-37.6-37.6-65.2-39.5-632.5-39.5h-592.9V935c2,962.5,5.9,1128.5,27.7,1067.2c69.2-193.7,171.9-312.3,355.7-407.1c83-41.5,128.5-51.4,249-51.4c130.4,0,162.1,7.9,272.8,65.2c67.2,37.5,150.2,96.8,181.8,134.4c71.2,81,158.1,247.1,158.1,302.4c0,21.7,4,39.5,9.9,39.5C9422.4,2085.2,9426.3,1587.2,9426.3,978.4z M4540.7-3834c27.7-181.8,114.6-377.5,233.2-529.7l90.9-112.7l-1855.8,4c-1804.4,5.9-1855.8,7.9-1946.7,45.4C924-4367.6,799.5-4272.7,722.4-4166s-150.2,306.3-150.2,411.1v69.2h1972.4H4517L4540.7-3834z"/><path d="M1204.6,2638.6v-632.4h158.1h158.1v632.4V3271h-158.1h-158.1V2638.6z"/><path d="M1204.6,1452.8v-237.2h158.1h158.1v237.2v237.2h-158.1h-158.1V1452.8z"/><path d="M2943.8,662.2V-523.6H4604h1660.2V662.2v1185.8H4604H2943.8V662.2z M5947.9,662.2v-869.6H4604H3260.1v869.6v869.6H4604h1343.9V662.2z"/><path d="M2943.8-1156v-158.1H4604h1660.2v158.1v158.1H4604H2943.8V-1156z"/><path d="M2943.8-1946.6v-158.1H4604h1660.2v158.1v158.1H4604H2943.8V-1946.6z"/><path d="M2943.8-2737.1v-158.1H4604h1660.2v158.1v158.1H4604H2943.8V-2737.1z"/></g></g>
</svg>