<?xml version="1.0" encoding="iso-8859-1"?>
<!-- Generator: Adobe Illustrator 16.0.0, SVG Export Plug-In . SVG Version: 6.00 Build 0)  -->
<!DOCTYPE svg PUBLIC "-//W3C//DTD SVG 1.1//EN" "http://www.w3.org/Graphics/SVG/1.1/DTD/svg11.dtd">
<svg xmlns="http://www.w3.org/2000/svg" xmlns:xlink="http://www.w3.org/1999/xlink" version="1.1" id="Capa_1" x="0px" y="0px" width="512px" height="512px" viewBox="0 0 224.868 224.868" style="enable-background:new 0 0 224.868 224.868;" xml:space="preserve">
<g>
	<g>
		<path d="M13.439,169.103h84.888v17.916H84.663c-1.484,0-2.688,1.202-2.688,2.688v17.023c0,1.48,1.204,2.688,2.688,2.688h55.543    c1.476,0,2.688-1.207,2.688-2.688v-17.023c0-1.485-1.213-2.688-2.688-2.688h-13.657v-17.916h84.883    c7.412,0,13.437-6.032,13.437-13.438V28.89c0-7.406-6.024-13.438-13.437-13.438H13.439C6.032,15.451,0,21.483,0,28.89v126.769    C0,163.07,6.026,169.103,13.439,169.103z M87.351,204.042v-3.135h50.167v3.135H87.351z M137.519,195.526H87.351v-3.132h13.664    h22.846h13.669L137.519,195.526L137.519,195.526z M121.173,187.019h-17.47v-17.916h17.47V187.019z M13.439,20.827h197.993    c4.44,0,8.062,3.617,8.062,8.063v111.987H5.375V28.89C5.375,24.444,8.993,20.827,13.439,20.827z" fill="#FFFFFF"/>
		<path d="M41.213,135.055c0.743,0,1.483-0.314,2.017-0.909l35.704-40.381l18.583,19.189c0.016,0.021,0.031,0.021,0.047,0.031    c0.016,0.021,0.021,0.042,0.031,0.053c0.168,0.158,0.367,0.252,0.554,0.346c0.102,0.064,0.188,0.143,0.296,0.189    c0.323,0.127,0.661,0.199,1.005,0.199c0.344,0,0.688-0.072,1.017-0.205c0.106-0.041,0.193-0.13,0.301-0.194    c0.187-0.114,0.386-0.199,0.553-0.355c0.017-0.011,0.017-0.032,0.032-0.053c0.016-0.011,0.031-0.011,0.047-0.032l28.166-29.664    l21.952,11.388c0.044,0.023,0.101,0.016,0.138,0.034c0.355,0.161,0.725,0.269,1.102,0.269c0.431,0,0.851-0.134,1.249-0.344    c0.111-0.065,0.21-0.167,0.337-0.252c0.156-0.118,0.335-0.205,0.473-0.362l36.735-43.675c0.954-1.135,0.798-2.832-0.337-3.788    c-1.133-0.953-2.823-0.809-3.789,0.325l-35.339,42.027l-21.838-11.333c-0.054-0.026-0.111-0.021-0.147-0.043    c-0.179-0.078-0.356-0.118-0.556-0.154c-0.148-0.034-0.312-0.077-0.463-0.082c-0.168-0.005-0.346,0.032-0.519,0.061    c-0.174,0.026-0.343,0.047-0.51,0.113c-0.143,0.052-0.283,0.145-0.404,0.226c-0.169,0.094-0.341,0.191-0.473,0.325    c-0.047,0.04-0.1,0.05-0.125,0.092l-27.634,29.103L80.765,87.938c-0.026-0.026-0.063-0.037-0.092-0.057    c-0.026-0.029-0.037-0.061-0.063-0.082c-0.107-0.098-0.241-0.134-0.359-0.209c-0.158-0.103-0.302-0.21-0.475-0.274    c-0.16-0.06-0.323-0.075-0.488-0.103c-0.174-0.028-0.333-0.07-0.512-0.07c-0.176,0.005-0.349,0.055-0.521,0.092    c-0.162,0.037-0.317,0.055-0.472,0.124c-0.168,0.07-0.307,0.188-0.464,0.291c-0.118,0.079-0.252,0.123-0.36,0.226    c-0.026,0.026-0.037,0.062-0.058,0.092c-0.029,0.026-0.06,0.036-0.081,0.062l-37.628,42.558c-0.984,1.111-0.882,2.797,0.231,3.794    C39.946,134.834,40.578,135.055,41.213,135.055z" fill="#FFFFFF"/>
	</g>
</g>
<g>
</g>
<g>
</g>
<g>
</g>
<g>
</g>
<g>
</g>
<g>
</g>
<g>
</g>
<g>
</g>
<g>
</g>
<g>
</g>
<g>
</g>
<g>
</g>
<g>
</g>
<g>
</g>
<g>
</g>
</svg>
