<?xml version="1.0" encoding="iso-8859-1"?>
<!-- Generator: Adobe Illustrator 19.0.0, SVG Export Plug-In . SVG Version: 6.00 Build 0)  -->
<svg xmlns="http://www.w3.org/2000/svg" xmlns:xlink="http://www.w3.org/1999/xlink" version="1.1" id="Layer_1" x="0px" y="0px" viewBox="0 0 496 496" style="enable-background:new 0 0 496 496;" xml:space="preserve" width="512px" height="512px">
<g>
	<g>
		<g>
			<path d="M496,224v-16h-16V56h-24V40c0-22.056-17.944-40-40-40h-16c-22.056,0-40,17.944-40,40v80h-48v16H176     c-22.056,0-40,17.944-40,40v16h-32v22.408c-8.416,2.776-16.44,6.448-24,10.848V136h16V88H80V48H16v40H0v48h16v168H8v64h8v112H0     v16h496v-16h-16V224H496z M16,104h8h8h16V88H32V64h32v40h16v16H64v116.328c-12.984,10.472-23.888,23.392-32,38V136h16v-16H32h-8     h-8V104z M64,440v40H32v-82.28c9.312,16.824,22.232,31.24,37.672,42.28H64z M136,480H80v-33.288     c16.776,9.728,35.864,15.664,56,16.936V480z M256,480H152v-16.352c44.168-2.784,83.176-28.32,104-65.928V480z M264,352h-32v16     h19.352c-13.208,44.36-53,76.312-99.352,79.648V384h-16v63.648C89.648,444.312,49.848,412.36,36.648,368H216v-16H24v-32h32v-16     H36.712c10.936-36.448,40.392-65.728,77.416-75.952l5.872-1.616V208h48v18.432l5.872,1.616     c37.024,10.224,66.48,39.504,77.416,75.952H72v16h192V352z M312,304h-16v16h16v160h-40V368h8v-64h-12.104     c-8.824-34.064-31.72-63.088-62.128-80H312V304z M312,168h-16v16h16v24H184v-16h-32v-16c0-13.232,10.768-24,24-24h136V168z      M416,480h-88V320h88V480z M416,208h-16v16h16v80h-88V184h88V208z M416,168h-88v-32h88V168z M416,120h-40V40     c0-13.232,10.768-24,24-24h16c13.232,0,24,10.768,24,24v16h-24V120z M464,480h-32V224h32V480z M464,208h-32V72h32V208z" fill="#D80027"/>
			<rect x="280" y="240" width="16" height="16" fill="#D80027"/>
			<rect x="248" y="240" width="16" height="16" fill="#D80027"/>
			<rect x="384" y="336" width="16" height="16" fill="#D80027"/>
			<rect x="352" y="336" width="16" height="16" fill="#D80027"/>
			<rect x="136" y="224" width="16" height="16" fill="#D80027"/>
		</g>
	</g>
</g>
<g>
</g>
<g>
</g>
<g>
</g>
<g>
</g>
<g>
</g>
<g>
</g>
<g>
</g>
<g>
</g>
<g>
</g>
<g>
</g>
<g>
</g>
<g>
</g>
<g>
</g>
<g>
</g>
<g>
</g>
</svg>
