<?xml version="1.0" encoding="iso-8859-1"?>
<!-- Generator: Adobe Illustrator 19.0.0, SVG Export Plug-In . SVG Version: 6.00 Build 0)  -->
<svg xmlns="http://www.w3.org/2000/svg" xmlns:xlink="http://www.w3.org/1999/xlink" version="1.1" id="Capa_1" x="0px" y="0px" viewBox="0 0 60 60" style="enable-background:new 0 0 60 60;" xml:space="preserve" width="512px" height="512px">
<g>
	<g>
		<path d="M41,7H4C2.8,7,2,7.8,2,9v11v39c0,0.6,0.4,1,1,1h39c0.6,0,1-0.4,1-1V20V9C43,7.8,42.2,7,41,7z M4,9h37v10H4V9z M41,58H4V21    h37V58z" fill="#FFFFFF"/>
		<rect x="9" y="13" width="12" height="2" fill="#FFFFFF"/>
		<rect x="24" y="13" width="5" height="2" fill="#FFFFFF"/>
		<rect x="8" y="24" width="5" height="2" fill="#FFFFFF"/>
		<rect x="16" y="24" width="5" height="2" fill="#FFFFFF"/>
		<rect x="24" y="24" width="5" height="2" fill="#FFFFFF"/>
		<rect x="32" y="24" width="5" height="2" fill="#FFFFFF"/>
		<path d="M8,36h7c0.6,0,1-0.4,1-1v-5c0-0.6-0.4-1-1-1H8c-0.6,0-1,0.4-1,1v5C7,35.6,7.4,36,8,36z M9,31h5v3H9V31z" fill="#FFFFFF"/>
		<path d="M26,29h-7c-0.6,0-1,0.4-1,1v5c0,0.6,0.4,1,1,1h7c0.6,0,1-0.4,1-1v-5C27,29.4,26.6,29,26,29z M25,34h-5v-3h5V34z" fill="#FFFFFF"/>
		<path d="M29,35c0,0.6,0.4,1,1,1h7c0.6,0,1-0.4,1-1v-5c0-0.6-0.4-1-1-1h-7c-0.6,0-1,0.4-1,1V35z M31,31h5v3h-5V31z" fill="#FFFFFF"/>
		<path d="M8,46h7c0.6,0,1-0.4,1-1v-5c0-0.6-0.4-1-1-1H8c-0.6,0-1,0.4-1,1v5C7,45.6,7.4,46,8,46z M9,41h5v3H9V41z" fill="#FFFFFF"/>
		<path d="M26,39h-7c-0.6,0-1,0.4-1,1v5c0,0.6,0.4,1,1,1h7c0.6,0,1-0.4,1-1v-5C27,39.4,26.6,39,26,39z M25,44h-5v-3h5V44z" fill="#FFFFFF"/>
		<path d="M37,39h-7c-0.6,0-1,0.4-1,1v5c0,0.6,0.4,1,1,1h7c0.6,0,1-0.4,1-1v-5C38,39.4,37.6,39,37,39z M36,44h-5v-3h5V44z" fill="#FFFFFF"/>
		<path d="M8,56h7c0.6,0,1-0.4,1-1v-5c0-0.6-0.4-1-1-1H8c-0.6,0-1,0.4-1,1v5C7,55.6,7.4,56,8,56z M9,51h5v3H9V51z" fill="#FFFFFF"/>
		<path d="M26,49h-7c-0.6,0-1,0.4-1,1v5c0,0.6,0.4,1,1,1h7c0.6,0,1-0.4,1-1v-5C27,49.4,26.6,49,26,49z M25,54h-5v-3h5V54z" fill="#FFFFFF"/>
		<path d="M37,49h-7c-0.6,0-1,0.4-1,1v5c0,0.6,0.4,1,1,1h7c0.6,0,1-0.4,1-1v-5C38,49.4,37.6,49,37,49z M36,54h-5v-3h5V54z" fill="#FFFFFF"/>
		<path d="M56,24v29h-2v-5V10c0-0.2-0.1-0.5-0.2-0.6l-2.9-8.7C50.8,0.3,50.4,0,50,0s-0.8,0.3-0.9,0.7l-2.9,8.7    C46.1,9.6,46,9.8,46,10v38v11c0,0.6,0.4,1,1,1h6c0.6,0,1-0.4,1-1v-4h3c0.6,0,1-0.4,1-1V24H56z M48,11h4v36h-4V11z M50,4.2L51.6,9    h-3.2L50,4.2z M52,58h-4v-9h4V58z" fill="#FFFFFF"/>
	</g>
</g>
<g>
</g>
<g>
</g>
<g>
</g>
<g>
</g>
<g>
</g>
<g>
</g>
<g>
</g>
<g>
</g>
<g>
</g>
<g>
</g>
<g>
</g>
<g>
</g>
<g>
</g>
<g>
</g>
<g>
</g>
</svg>
